<svg xmlns="http://www.w3.org/2000/svg" viewBox="0 0 466.92 70.05"><defs><style>.cls-1{fill:#4c535d;}.cls-2{fill:#fa3455;}.cls-3{fill:#6c6d70;}</style></defs><g id="katman_2" data-name="katman 2"><g id="katman_4" data-name="katman 4"><polygon class="cls-1" points="37.3 0 37.3 8.3 3.58 15.33 3.58 8.98 37.3 0"/><polygon class="cls-1" points="37.3 59.6 37.3 67.78 3.58 61.37 3.58 55.11 37.3 59.6"/><polygon class="cls-2" points="37.3 9.41 37.3 58.37 3.58 53.88 0 53.4 0 17.19 3.58 16.45 37.3 9.41"/><polygon class="cls-3" points="38.69 0 38.69 8.3 72.41 15.33 72.41 8.98 38.69 0"/><polygon class="cls-3" points="38.69 59.6 38.69 67.78 72.41 61.37 72.41 55.11 38.69 59.6"/><polygon class="cls-2" points="38.69 9.41 38.69 58.37 72.41 53.88 75.99 53.4 75.99 17.19 72.41 16.45 38.69 9.41"/><path class="cls-1" d="M106.56,37.45,78.74,13.74H97.46l16.47,14.07,16.48-14.07h18.72L121.3,37.45V57.81H106.56Z"/><path class="cls-1" d="M160.51,13.74H180.6q20.76,0,20.77,15.91V45q0,12.86-20.77,12.86H160.51q-20.76,0-20.76-15.92V29.65Q139.75,13.74,160.51,13.74Zm20.09,10.4H160.51q-6,0-6,5.51V41.89q0,5.51,6,5.51H180.6q6,0,6-5.51V29.65Q186.63,24.15,180.6,24.14Z"/><path class="cls-1" d="M250.26,13.74H265V45q0,12.86-20.76,12.86H224.14q-20.77,0-20.77-15.92V13.74h14.74V41.89q0,5.51,6,5.51h20.09q6,0,6-5.51Z"/><path class="cls-2" d="M267,24.14V13.74h40.85q20.77,0,20.77,15.91V45q0,12.86-20.77,12.86H267V32.1h14.73V47.4h26.12q6,0,6-5.51V29.65q0-5.5-6-5.51Z"/><path class="cls-2" d="M345.36,41v.92q0,5.51,6,5.51h34.15V57.81H351.39q-20.77,0-20.77-15.92V29.65q0-15.91,20.77-15.91h34.15l0,10.4H351.39q-6,0-6,5.51v.92h40.18V41Z"/><path class="cls-2" d="M409,35.77l-25.86-22h18.72l16.48,14.07,16.47-14.07h18.72l-25.85,22,39.22,34.28H448.23L418.36,43.76,401.88,57.81H383.16Z"/></g></g></svg>